<svg width="34" height="33" viewBox="0 0 34 33" fill="none" xmlns="http://www.w3.org/2000/svg">
<path d="M17.0252 16.844C17.0034 16.8222 17.0034 16.8222 17.0252 16.844C16.7646 16.844 16.4388 16.9525 16.2216 17.2566C16.1782 17.3 9.1635 29.8309 8.57713 30.8516C8.55541 30.9168 8.51198 30.9602 8.51198 31.0036C8.40339 31.4163 8.57713 31.7637 8.77258 31.9592C8.94632 32.1329 9.27208 32.285 9.61956 32.1981C9.70643 32.1981 17.0252 29.4834 17.0252 29.4834C17.0252 29.4834 24.3439 32.1981 24.409 32.2198C24.7348 32.285 25.0388 32.1546 25.256 31.9809C25.4732 31.7637 25.6252 31.438 25.5166 31.0254C25.4949 30.9602 25.4949 30.9168 25.4515 30.8733C24.8651 29.8526 17.8504 17.3217 17.807 17.2783C17.6115 16.9525 17.2858 16.844 17.0252 16.844Z" fill="#FFC600"/>
<path d="M6.86177 29.8743L7.05723 29.5485C7.75218 28.2889 8.4037 27.1596 8.96835 26.1172C8.79461 25.9435 8.59916 25.7914 8.4037 25.596C3.66933 20.8616 3.64761 13.152 8.4037 8.39589C13.1381 3.66152 20.8477 3.6398 25.6038 8.39589C30.3599 13.152 30.3599 20.8399 25.6038 25.596C25.4301 25.7697 25.2563 25.9435 25.0609 26.0955C25.7124 27.2248 26.4073 28.4844 27.1892 29.8743C27.2326 29.9612 27.276 30.048 27.2977 30.1132C27.819 29.7223 28.3185 29.2662 28.7962 28.7884C35.2897 22.295 35.2897 11.6969 28.7962 5.20345C22.3028 -1.29002 11.7047 -1.29002 5.21126 5.20345C-1.30393 11.7186 -1.28221 22.295 5.21126 28.7884C5.68904 29.2662 6.18854 29.7223 6.73147 30.1349C6.73147 30.048 6.7749 29.9612 6.86177 29.8743Z" fill="white"/>
<path d="M20.2827 17.5825C20.7605 18.4512 21.5858 19.8845 22.8888 22.23C25.6252 19.1462 25.5166 14.3901 22.563 11.4365C19.5009 8.37437 14.4842 8.35265 11.4003 11.4365C8.42508 14.4118 8.31649 19.1679 11.0963 22.2517C12.3993 19.9497 13.2029 18.4946 13.6807 17.6259C13.4852 16.5618 13.7893 15.4325 14.5928 14.629C15.8958 13.3259 18.0241 13.3259 19.3272 14.629C20.1741 15.4325 20.4565 16.5401 20.2827 17.5825Z" fill="white"/>
</svg>
