<svg width="123" height="40" viewBox="0 0 123 40" fill="none" xmlns="http://www.w3.org/2000/svg">
<path d="M19.2278 22.2512C19.2278 22.2512 19.2278 22.2839 19.2278 22.2512C19.2278 22.2839 19.2278 22.2839 19.2278 22.2512C19.4348 22.4475 19.7798 22.6111 20.1938 22.5457C20.2628 22.5457 35.7868 18.3899 37.0633 18.0627C37.1323 18.03 37.2012 18.03 37.2357 17.9973C37.6497 17.7682 37.7877 17.3755 37.7877 17.081C37.7877 16.8193 37.6497 16.4593 37.3047 16.263C37.2357 16.1975 29.2667 12.7289 29.2667 12.7289C29.2667 12.7289 25.6099 5.17004 25.5754 5.1046C25.3685 4.8101 25.0235 4.67921 24.713 4.64648C24.368 4.64648 23.9885 4.77737 23.747 5.17004C23.7126 5.23549 23.6781 5.26821 23.6781 5.33366C23.3331 6.54439 18.9518 21.2695 18.9518 21.335C18.8483 21.7276 19.0208 22.0549 19.2278 22.2512Z" fill="#FFC600"/>
<path d="M32.7169 10.9293L32.8204 10.8311C32.8549 10.7984 32.8549 10.7984 32.8894 10.7657C32.9239 10.733 32.9239 10.733 32.9584 10.7003L33.0618 10.6021C33.0963 10.5694 33.0963 10.5694 33.1308 10.5366C33.1653 10.5039 33.1653 10.5039 33.1998 10.4712L33.3033 10.373C33.3378 10.3403 33.3378 10.3403 33.3723 10.3076C33.4068 10.2749 33.4068 10.2749 33.4413 10.2421L33.5448 10.144C33.5793 10.1113 33.5793 10.1113 33.6138 10.0785C33.6483 10.0458 33.6483 10.0458 33.6828 10.0131L33.7863 9.91492C34.2003 9.52225 34.2003 8.8678 33.7863 8.47513C33.3723 8.08246 32.6824 8.08246 32.2684 8.47513L32.1649 8.5733C32.1304 8.60602 32.1304 8.60602 32.0959 8.63874C32.0614 8.67146 32.0614 8.67146 32.0269 8.70418L31.9234 8.80235C31.8889 8.83507 31.8889 8.83508 31.8544 8.8678C31.8199 8.90052 31.8199 8.90052 31.7854 8.93324L31.6819 9.03141C31.6474 9.06413 31.6474 9.06413 31.6129 9.09685C31.5784 9.12958 31.5784 9.12958 31.5439 9.1623L31.4404 9.26047C31.4059 9.29319 31.4059 9.29319 31.3714 9.32591C31.3369 9.35864 31.3369 9.35864 31.3025 9.39136L31.199 9.48952C30.785 9.88219 30.785 10.5366 31.199 10.9293C31.6129 11.322 32.3029 11.322 32.7169 10.9293ZM36.5806 4.38481L36.4771 4.48298C36.4426 4.51571 36.4426 4.5157 36.4081 4.54843C36.3736 4.58115 36.3736 4.58115 36.3392 4.61387L36.2357 4.71204C36.2012 4.74476 36.2012 4.74476 36.1667 4.77749C36.1322 4.81021 36.1322 4.81021 36.0977 4.84293L35.9942 4.9411C35.9597 4.97382 35.9597 4.97382 35.9252 5.00654C35.8907 5.03926 35.8907 5.03927 35.8562 5.07199L35.7527 5.17015C35.7182 5.20288 35.7182 5.20288 35.6837 5.2356C35.6492 5.26832 35.6492 5.26832 35.6147 5.30105L35.5112 5.39921C35.0972 5.79188 35.0972 6.44633 35.5112 6.839C35.9252 7.23167 36.6151 7.23167 37.0291 6.839L37.1326 6.74084C37.1671 6.70811 37.1671 6.70811 37.2016 6.67539C37.2361 6.64267 37.2361 6.64267 37.2706 6.60995L37.3741 6.51178C37.4086 6.47905 37.4086 6.47906 37.4431 6.44633C37.4776 6.41361 37.4776 6.41361 37.5121 6.38089L37.6156 6.28272C37.6501 6.25 37.6501 6.25 37.6846 6.21727C37.7191 6.18455 37.7191 6.18455 37.7536 6.15183L37.8571 6.05366C37.8916 6.02094 37.8916 6.02094 37.9261 5.98822C37.9606 5.95549 37.9606 5.9555 37.9951 5.92277L38.0985 5.8246C38.5125 5.43193 38.5125 4.77748 38.0985 4.38481C37.6846 3.99214 36.9946 3.99214 36.5806 4.38481ZM42.4108 0.294503C41.9968 -0.0981675 41.3069 -0.0981675 40.8929 0.294503L40.7894 0.39267C40.7549 0.425392 40.7549 0.425393 40.7204 0.458115C40.6859 0.490838 40.6859 0.490837 40.6514 0.52356L40.5479 0.621728C40.5134 0.65445 40.5134 0.65445 40.4789 0.687172C40.4444 0.719895 40.4444 0.719895 40.4099 0.752618L40.3064 0.850785C40.2719 0.883507 40.2719 0.883508 40.2374 0.91623C40.2029 0.948953 40.2029 0.948952 40.1684 0.981675L40.0649 1.07984C40.0304 1.11257 40.0304 1.11256 39.9959 1.14529C39.9614 1.17801 39.9614 1.17801 39.9269 1.21073L39.8234 1.3089C39.4095 1.70157 39.4095 2.35602 39.8234 2.74869C40.2374 3.14136 40.9274 3.14136 41.3414 2.74869L41.4448 2.65052C41.4793 2.6178 41.4793 2.6178 41.5138 2.58508C41.5483 2.55235 41.5483 2.55235 41.5828 2.51963L41.6863 2.42146C41.7208 2.38874 41.7208 2.38874 41.7553 2.35602C41.7898 2.3233 41.7898 2.3233 41.8243 2.29057L41.9278 2.19241C41.9623 2.15968 41.9623 2.15968 41.9968 2.12696C42.0313 2.09424 42.0313 2.09424 42.0658 2.06152L42.1693 1.96335C42.2038 1.93063 42.2038 1.93063 42.2383 1.89791C42.2728 1.86518 42.2728 1.86518 42.3073 1.83246L42.4108 1.73429C42.8248 1.34162 42.8248 0.687173 42.4108 0.294503ZM37.6501 20.0916L37.2361 20.1898C35.6837 20.6152 34.2693 20.9751 32.9929 21.3351C32.9929 21.5968 33.0273 21.8586 33.0273 22.1531C33.0273 29.2866 26.9212 35.1112 19.3662 35.1112C11.8456 35.1112 5.70499 29.3194 5.70499 22.1531C5.70499 14.9869 11.8111 9.19502 19.3662 9.19502C19.6422 9.19502 19.9181 9.19502 20.1941 9.22775C20.5736 7.88612 21.0221 6.41361 21.505 4.77749C21.5395 4.67932 21.574 4.58115 21.6085 4.5157C20.8841 4.41754 20.1251 4.38481 19.3662 4.38481C9.05129 4.38481 0.633789 12.3691 0.633789 22.1531C0.633789 31.9372 9.05129 39.9214 19.3662 39.9214C29.7155 39.9214 38.0985 31.9372 38.0985 22.1531C38.0985 21.4332 38.064 20.7133 37.9606 19.9934C37.8916 20.0589 37.7881 20.0916 37.6501 20.0916Z" fill="white"/>
<path d="M17.2278 19.2407C17.5382 18.2263 18.0212 16.5247 18.8492 13.776C14.2264 14.0378 10.5352 17.7027 10.5352 22.153C10.5352 26.7668 14.5024 30.5627 19.4011 30.5627C24.1273 30.5627 27.9911 27.0613 28.2326 22.6438C25.3693 23.3964 23.5754 23.8873 22.5059 24.1818C21.816 25.1307 20.6776 25.7524 19.4011 25.7524C17.3313 25.7524 15.6409 24.149 15.6409 22.1857C15.6064 20.9422 16.2618 19.8951 17.2278 19.2407Z" fill="white"/>
<path d="M65.2882 13.0412C65.2882 14.338 65.0547 15.5288 64.5876 16.6136C64.1205 17.6983 63.4639 18.6322 62.6178 19.4152C61.7717 20.1982 60.7538 20.8059 59.564 21.2381C58.3742 21.6704 57.0522 21.8866 55.598 21.8866H48.3139V4.19575H55.598C57.0522 4.19575 58.3742 4.41596 59.564 4.8564C60.7538 5.28868 61.7717 5.89632 62.6178 6.67931C63.4639 7.45415 64.1205 8.38396 64.5876 9.46873C65.0547 10.5535 65.2882 11.7443 65.2882 13.0412ZM61.6395 13.0412C61.6395 12.0706 61.4985 11.2019 61.2165 10.4352C60.9433 9.66041 60.5423 9.00791 60.0135 8.47776C59.4935 7.93945 58.8589 7.52756 58.1098 7.24209C57.3695 6.95662 56.5322 6.81389 55.598 6.81389H51.8832V19.2684H55.598C56.5322 19.2684 57.3695 19.1257 58.1098 18.8402C58.8589 18.5547 59.4935 18.1469 60.0135 17.6168C60.5423 17.0785 60.9433 16.426 61.2165 15.6593C61.4985 14.8845 61.6395 14.0117 61.6395 13.0412Z" fill="white"/>
<path d="M77.9339 15.2066L75.6072 9.32192C75.4926 9.06093 75.3736 8.75099 75.2502 8.39212C75.1268 8.03324 75.0034 7.64582 74.8801 7.22986C74.7655 7.64582 74.6465 8.03732 74.5231 8.40435C74.3997 8.76322 74.2808 9.07724 74.1662 9.34639L71.8527 15.2066H77.9339ZM84.2133 21.8866H81.4636C81.1551 21.8866 80.9039 21.8172 80.71 21.6786C80.5161 21.5318 80.3707 21.3523 80.2738 21.1403L78.846 17.5311H70.9273L69.4996 21.1403C69.4291 21.3279 69.2925 21.4991 69.0898 21.6541C68.887 21.8091 68.6359 21.8866 68.3362 21.8866H65.56L73.0822 4.19575H76.7044L84.2133 21.8866Z" fill="white"/>
<path d="M96.3713 7.41337C96.2655 7.58465 96.1509 7.71107 96.0275 7.79263C95.913 7.86604 95.7676 7.90274 95.5913 7.90274C95.4062 7.90274 95.2035 7.84157 94.9832 7.71923C94.7717 7.58873 94.5161 7.446 94.2164 7.29103C93.9168 7.13606 93.5642 6.9974 93.1588 6.87506C92.7622 6.74456 92.2907 6.67931 91.7443 6.67931C91.2508 6.67931 90.8189 6.73641 90.4488 6.85059C90.0786 6.95662 89.7657 7.10751 89.5101 7.30326C89.2634 7.49901 89.0783 7.73554 88.9549 8.01285C88.8315 8.28201 88.7698 8.57971 88.7698 8.90596C88.7698 9.32192 88.8932 9.66856 89.14 9.94587C89.3956 10.2232 89.7305 10.4597 90.1447 10.6555C90.5589 10.8512 91.0304 11.0266 91.5592 11.1815C92.088 11.3365 92.63 11.5037 93.1853 11.6831C93.7405 11.8544 94.2825 12.0583 94.8113 12.2949C95.3401 12.5232 95.8116 12.8169 96.2258 13.1757C96.6401 13.5264 96.9706 13.9587 97.2173 14.4726C97.4729 14.9864 97.6007 15.6104 97.6007 16.3444C97.6007 17.1437 97.4509 17.8941 97.1512 18.5955C96.8604 19.2888 96.4286 19.8964 95.8557 20.4184C95.2916 20.9323 94.5998 21.3401 93.7802 21.6419C92.9605 21.9355 92.0219 22.0823 90.9643 22.0823C90.3562 22.0823 89.7569 22.0252 89.1664 21.911C88.5759 21.805 88.0075 21.65 87.4611 21.4461C86.9235 21.2422 86.4167 20.9975 85.9408 20.7121C85.4649 20.4266 85.0418 20.1085 84.6717 19.7578L85.716 18.1796C85.8042 18.0654 85.9187 17.9716 86.0597 17.8982C86.2008 17.8166 86.3506 17.7758 86.5092 17.7758C86.7296 17.7758 86.9675 17.8615 87.2231 18.0328C87.4787 18.1959 87.7827 18.3794 88.1353 18.5833C88.4878 18.7872 88.8976 18.9748 89.3647 19.1461C89.8406 19.3092 90.4091 19.3908 91.0701 19.3908C92.0836 19.3908 92.868 19.1705 93.4232 18.7301C93.9785 18.2815 94.2561 17.6413 94.2561 16.8093C94.2561 16.3444 94.1283 15.9652 93.8727 15.6715C93.6259 15.3779 93.2954 15.1332 92.8812 14.9375C92.467 14.7336 91.9955 14.5623 91.4667 14.4236C90.9379 14.285 90.4003 14.1341 89.8539 13.971C89.3074 13.8078 88.7698 13.6121 88.241 13.3837C87.7122 13.1553 87.2407 12.8576 86.8265 12.4906C86.4123 12.1236 86.0774 11.6668 85.8218 11.1204C85.575 10.5657 85.4516 9.8847 85.4516 9.07724C85.4516 8.4329 85.5882 7.80487 85.8615 7.19315C86.1435 6.58144 86.5489 6.03905 87.0777 5.56599C87.6065 5.09293 88.2587 4.71367 89.0342 4.4282C89.8098 4.14273 90.6999 4 91.7046 4C92.8327 4 93.8727 4.16312 94.8245 4.48937C95.7764 4.81562 96.5872 5.27237 97.257 5.85961L96.3713 7.41337Z" fill="white"/>
<path d="M116.818 4.19575V21.8866H114.994C114.712 21.8866 114.474 21.8458 114.28 21.7642C114.095 21.6745 113.914 21.5277 113.738 21.3238L103.757 9.52991C103.81 10.0682 103.836 10.5657 103.836 11.0225V21.8866H100.703V4.19575H102.567C102.717 4.19575 102.844 4.2039 102.95 4.22022C103.065 4.22837 103.162 4.25284 103.241 4.29362C103.329 4.32625 103.413 4.37926 103.492 4.45267C103.572 4.51792 103.66 4.60764 103.757 4.72182L113.777 16.5646C113.751 16.2792 113.729 15.9978 113.711 15.7205C113.694 15.4432 113.685 15.1862 113.685 14.9497V4.19575H116.818Z" fill="white"/>
<path d="M53.2892 27.7223V36.5677H51.7226V30.8543C51.7226 30.6259 51.7359 30.3792 51.7623 30.1141L48.8738 35.1363C48.7371 35.3769 48.5278 35.4972 48.2458 35.4972H47.9946C47.7126 35.4972 47.5033 35.3769 47.3667 35.1363L44.4451 30.0958C44.4583 30.2304 44.4693 30.3629 44.4781 30.4934C44.487 30.6239 44.4914 30.7442 44.4914 30.8543V36.5677H42.9248V27.7223H44.2666C44.3459 27.7223 44.4142 27.7244 44.4715 27.7284C44.5288 27.7325 44.5795 27.7427 44.6236 27.759C44.672 27.7753 44.7139 27.8018 44.7491 27.8386C44.7888 27.8753 44.8263 27.9242 44.8615 27.9854L47.7236 32.8974C47.7985 33.0279 47.8668 33.1625 47.9285 33.3012C47.9946 33.4398 48.0585 33.5826 48.1202 33.7294C48.1819 33.5785 48.2458 33.4337 48.3119 33.2951C48.378 33.1523 48.4485 33.0157 48.5234 32.8852L51.3459 27.9854C51.3811 27.9242 51.4186 27.8753 51.4582 27.8386C51.4979 27.8018 51.5398 27.7753 51.5838 27.759C51.6323 27.7427 51.6852 27.7325 51.7425 27.7284C51.7998 27.7244 51.8681 27.7223 51.9474 27.7223H53.2892Z" fill="#FFC600"/>
<path d="M57.2064 29.0314V31.4844H60.551V32.7506H57.2064V35.2525H61.45V36.5677H55.4217V27.7223H61.45V29.0314H57.2064Z" fill="#FFC600"/>
<path d="M64.8104 36.5677H63.0257V27.7223H64.8104V36.5677Z" fill="#FFC600"/>
<path d="M68.7351 29.0314V31.4844H72.0797V32.7506H68.7351V35.2525H72.9787V36.5677H66.9504V27.7223H72.9787V29.0314H68.7351Z" fill="#FFC600"/>
<path d="M84.9188 27.7223V36.5677H83.3523V30.8543C83.3523 30.6259 83.3655 30.3792 83.3919 30.1141L80.5034 35.1363C80.3668 35.3769 80.1575 35.4972 79.8754 35.4972H79.6242C79.3422 35.4972 79.1329 35.3769 78.9963 35.1363L76.0747 30.0958C76.0879 30.2304 76.0989 30.3629 76.1078 30.4934C76.1166 30.6239 76.121 30.7442 76.121 30.8543V36.5677H74.5544V27.7223H75.8962C75.9756 27.7223 76.0439 27.7244 76.1012 27.7284C76.1584 27.7325 76.2091 27.7427 76.2532 27.759C76.3017 27.7753 76.3435 27.8018 76.3788 27.8386C76.4184 27.8753 76.4559 27.9242 76.4911 27.9854L79.3532 32.8974C79.4282 33.0279 79.4965 33.1625 79.5582 33.3012C79.6243 33.4398 79.6881 33.5826 79.7498 33.7294C79.8115 33.5785 79.8754 33.4337 79.9415 33.2951C80.0076 33.1523 80.0781 33.0157 80.153 32.8852L82.9755 27.9854C83.0107 27.9242 83.0482 27.8753 83.0879 27.8386C83.1275 27.8018 83.1694 27.7753 83.2134 27.759C83.2619 27.7427 83.3148 27.7325 83.3721 27.7284C83.4294 27.7244 83.4977 27.7223 83.577 27.7223H84.9188Z" fill="#FFC600"/>
<path d="M88.836 29.0314V31.6495H92.4186V32.9647H88.836V36.5677H87.0513V27.7223H93.0796V29.0314H88.836Z" fill="#FFC600"/>
<path d="M103.564 32.145C103.564 32.7934 103.447 33.395 103.214 33.9496C102.984 34.5001 102.658 34.9773 102.235 35.381C101.812 35.7847 101.303 36.1008 100.708 36.3292C100.114 36.5535 99.4525 36.6656 98.7254 36.6656C98.0028 36.6656 97.344 36.5535 96.7491 36.3292C96.1542 36.1008 95.643 35.7847 95.2156 35.381C94.7925 34.9773 94.4642 34.5001 94.2307 33.9496C93.9971 33.395 93.8804 32.7934 93.8804 32.145C93.8804 31.4966 93.9971 30.8971 94.2307 30.3466C94.4642 29.792 94.7925 29.3128 95.2156 28.9091C95.643 28.5053 96.1542 28.1913 96.7491 27.967C97.344 27.7386 98.0028 27.6245 98.7254 27.6245C99.2102 27.6245 99.6663 27.6775 100.094 27.7835C100.521 27.8854 100.913 28.0323 101.27 28.2239C101.627 28.4115 101.947 28.6419 102.229 28.9152C102.515 29.1843 102.758 29.4861 102.956 29.8205C103.154 30.1549 103.304 30.5179 103.405 30.9094C103.511 31.3009 103.564 31.7127 103.564 32.145ZM101.746 32.145C101.746 31.6597 101.676 31.2254 101.535 30.8421C101.394 30.4547 101.193 30.1264 100.933 29.8572C100.673 29.5881 100.356 29.3821 99.9813 29.2394C99.6112 29.0966 99.1925 29.0253 98.7254 29.0253C98.2583 29.0253 97.8375 29.0966 97.4629 29.2394C97.0928 29.3821 96.7755 29.5881 96.5111 29.8572C96.2511 30.1264 96.0506 30.4547 95.9096 30.8421C95.7686 31.2254 95.6981 31.6597 95.6981 32.145C95.6981 32.6303 95.7686 33.0667 95.9096 33.4541C96.0506 33.8374 96.2511 34.1637 96.5111 34.4328C96.7755 34.6979 97.0928 34.9018 97.4629 35.0446C97.8375 35.1873 98.2583 35.2587 98.7254 35.2587C99.1925 35.2587 99.6112 35.1873 99.9813 35.0446C100.356 34.9018 100.673 34.6979 100.933 34.4328C101.193 34.1637 101.394 33.8374 101.535 33.4541C101.676 33.0667 101.746 32.6303 101.746 32.145Z" fill="#FFC600"/>
<path d="M111.689 34.4818C111.786 34.4818 111.872 34.5164 111.947 34.5858L112.648 35.2892C112.26 35.7338 111.782 36.0743 111.213 36.3108C110.649 36.5473 109.97 36.6656 109.177 36.6656C108.468 36.6656 107.829 36.5535 107.26 36.3292C106.696 36.1049 106.214 35.7929 105.813 35.3932C105.412 34.9936 105.103 34.5164 104.887 33.9618C104.676 33.4072 104.57 32.8016 104.57 32.145C104.57 31.4803 104.685 30.8727 104.914 30.3221C105.143 29.7675 105.465 29.2904 105.879 28.8907C106.298 28.491 106.796 28.1811 107.373 27.9609C107.95 27.7366 108.589 27.6245 109.29 27.6245C109.986 27.6245 110.603 27.7305 111.14 27.9425C111.682 28.1546 112.143 28.4319 112.522 28.7745L111.927 29.5391C111.892 29.5881 111.846 29.6309 111.788 29.6676C111.735 29.7043 111.66 29.7226 111.563 29.7226C111.497 29.7226 111.429 29.7063 111.359 29.6737C111.288 29.637 111.211 29.5942 111.127 29.5452C111.044 29.4922 110.947 29.4351 110.836 29.374C110.726 29.3128 110.598 29.2577 110.453 29.2088C110.308 29.1558 110.138 29.113 109.944 29.0803C109.755 29.0436 109.534 29.0253 109.283 29.0253C108.856 29.0253 108.463 29.0966 108.107 29.2394C107.754 29.378 107.45 29.5819 107.194 29.8511C106.939 30.1162 106.74 30.4424 106.599 30.8298C106.458 31.2132 106.388 31.6516 106.388 32.145C106.388 32.6426 106.463 33.085 106.613 33.4724C106.767 33.8599 106.974 34.1861 107.234 34.4512C107.494 34.7163 107.8 34.9202 108.153 35.0629C108.505 35.2016 108.884 35.2709 109.29 35.2709C109.532 35.2709 109.75 35.2587 109.944 35.2342C110.142 35.2097 110.323 35.171 110.486 35.118C110.654 35.0649 110.81 34.9977 110.955 34.9161C111.105 34.8305 111.253 34.7265 111.398 34.6041C111.442 34.5674 111.489 34.5389 111.537 34.5185C111.586 34.494 111.636 34.4818 111.689 34.4818Z" fill="#FFC600"/>
<path d="M122.774 32.145C122.774 32.7934 122.657 33.395 122.424 33.9496C122.195 34.5001 121.869 34.9773 121.445 35.381C121.022 35.7847 120.513 36.1008 119.919 36.3292C119.324 36.5535 118.663 36.6656 117.936 36.6656C117.213 36.6656 116.554 36.5535 115.959 36.3292C115.364 36.1008 114.853 35.7847 114.426 35.381C114.003 34.9773 113.674 34.5001 113.441 33.9496C113.207 33.395 113.09 32.7934 113.09 32.145C113.09 31.4966 113.207 30.8971 113.441 30.3466C113.674 29.792 114.003 29.3128 114.426 28.9091C114.853 28.5053 115.364 28.1913 115.959 27.967C116.554 27.7386 117.213 27.6245 117.936 27.6245C118.42 27.6245 118.876 27.6775 119.304 27.7835C119.731 27.8854 120.123 28.0323 120.48 28.2239C120.837 28.4115 121.157 28.6419 121.439 28.9152C121.725 29.1843 121.968 29.4861 122.166 29.8205C122.364 30.1549 122.514 30.5179 122.615 30.9094C122.721 31.3009 122.774 31.7127 122.774 32.145ZM120.956 32.145C120.956 31.6597 120.886 31.2254 120.745 30.8421C120.604 30.4547 120.403 30.1264 120.143 29.8572C119.883 29.5881 119.566 29.3821 119.191 29.2394C118.821 29.0966 118.403 29.0253 117.936 29.0253C117.468 29.0253 117.048 29.0966 116.673 29.2394C116.303 29.3821 115.986 29.5881 115.721 29.8572C115.461 30.1264 115.261 30.4547 115.12 30.8421C114.979 31.2254 114.908 31.6597 114.908 32.145C114.908 32.6303 114.979 33.0667 115.12 33.4541C115.261 33.8374 115.461 34.1637 115.721 34.4328C115.986 34.6979 116.303 34.9018 116.673 35.0446C117.048 35.1873 117.468 35.2587 117.936 35.2587C118.403 35.2587 118.821 35.1873 119.191 35.0446C119.566 34.9018 119.883 34.6979 120.143 34.4328C120.403 34.1637 120.604 33.8374 120.745 33.4541C120.886 33.0667 120.956 32.6303 120.956 32.145Z" fill="#FFC600"/>
</svg>
