<svg width="195" height="38" viewBox="0 0 195 38" fill="none" xmlns="http://www.w3.org/2000/svg">
<path d="M161.536 28.7555H164.772V8.18811H161.536V28.7555ZM190.686 15.5967L186.976 24.514H186.865L183.015 15.5967H179.528L185.302 28.0596L182.012 34.9927H185.385L194.285 15.5967H190.686ZM172.333 26.4193C171.271 26.4193 169.793 25.9175 169.793 24.672C169.793 23.086 171.634 22.4772 173.224 22.4772C174.646 22.4772 175.317 22.7684 176.181 23.1649C175.93 25.0702 174.2 26.4193 172.333 26.4193ZM172.723 15.1476C170.38 15.1476 167.952 16.1265 166.949 18.2966L169.821 19.4335C170.435 18.2966 171.578 17.9248 172.778 17.9248C174.452 17.9248 176.153 18.8774 176.181 20.572V20.7826C175.595 20.4651 174.341 19.9896 172.806 19.9896C169.71 19.9896 166.557 21.6036 166.557 24.6194C166.557 27.3719 169.096 29.1455 171.941 29.1455C174.117 29.1455 175.318 28.2192 176.07 27.1333H176.181V28.721H179.305V20.8353C179.305 17.1844 176.433 15.1476 172.723 15.1476L172.723 15.1476ZM152.722 18.1008H148.119V11.0509H152.722C155.142 11.0509 156.515 12.9512 156.515 14.575C156.515 16.1693 155.142 18.1008 152.722 18.1008ZM152.639 8.18811H144.884V28.7555H148.119V20.9636H152.639C156.226 20.9636 159.752 18.499 159.752 14.575C159.752 10.6511 156.226 8.18811 152.639 8.18811ZM110.353 26.4225C108.117 26.4225 106.246 24.6473 106.246 22.209C106.246 19.7444 108.117 17.9412 110.353 17.9412C112.561 17.9412 114.292 19.7444 114.292 22.209C114.292 24.6473 112.561 26.4225 110.353 26.4225ZM114.07 16.7484H113.957C113.23 15.9274 111.834 15.1854 110.074 15.1854C106.385 15.1854 103.004 18.2588 103.004 22.209C103.004 26.1313 106.385 29.18 110.074 29.18C111.834 29.18 113.23 28.438 113.957 27.589H114.07V28.5976C114.07 31.2744 112.561 32.7058 110.129 32.7058C108.145 32.7058 106.915 31.3534 106.412 30.2132L103.59 31.3271C104.4 33.1829 106.553 35.4616 110.129 35.4616C113.929 35.4616 117.143 33.3409 117.143 28.1731V15.6083H114.07V16.7484ZM119.379 28.7555H122.62V8.18647H119.379V28.7555ZM127.397 21.9705C127.314 19.2673 129.605 17.8886 131.252 17.8886C132.539 17.8886 133.628 18.4973 133.991 19.3726L127.397 21.9705ZM137.456 19.6375C136.842 18.0745 134.969 15.1854 131.141 15.1854C127.341 15.1854 124.185 18.0202 124.185 22.1827C124.185 26.105 127.313 29.18 131.504 29.18C134.886 29.18 136.842 27.2189 137.652 26.0787L135.137 24.4877C134.3 25.6542 133.153 26.4225 131.504 26.4225C129.856 26.4225 128.682 25.7069 127.927 24.3035L137.791 20.4321L137.456 19.6375ZM58.8739 17.3325V20.3005H66.3613C66.1376 21.9705 65.5513 23.1896 64.6581 24.0369C63.5671 25.0718 61.8622 26.212 58.8739 26.212C54.2621 26.212 50.6581 22.6862 50.6581 18.3131C50.6581 13.9383 54.2621 10.4142 58.8739 10.4142C61.361 10.4142 63.1769 11.3421 64.5176 12.5349L66.7255 10.4405C64.8523 8.74422 62.3669 7.44446 58.8739 7.44446C52.559 7.44446 47.25 12.3227 47.25 18.3131C47.25 24.3035 52.559 29.18 58.8739 29.18C62.282 29.18 64.8523 28.1188 66.8643 26.1313C68.9334 24.1702 69.5751 21.4144 69.5751 19.1867C69.5751 18.4973 69.5195 17.8623 69.4069 17.3325H58.8739ZM78.0892 26.4225C75.8536 26.4225 73.9249 24.6736 73.9249 22.1827C73.9249 19.6638 75.8536 17.9412 78.0892 17.9412C80.3231 17.9412 82.2517 19.6638 82.2517 22.1827C82.2517 24.6736 80.3231 26.4225 78.0892 26.4225ZM78.0892 15.1854C74.0082 15.1854 70.6834 18.1271 70.6834 22.1827C70.6834 26.212 74.0082 29.18 78.0892 29.18C82.1685 29.18 85.4933 26.212 85.4933 22.1827C85.4933 18.1271 82.1685 15.1854 78.0892 15.1854ZM94.2416 26.4225C92.0059 26.4225 90.0773 24.6736 90.0773 22.1827C90.0773 19.6638 92.0059 17.9412 94.2416 17.9412C96.4772 17.9412 98.4041 19.6638 98.4041 22.1827C98.4041 24.6736 96.4772 26.4225 94.2416 26.4225ZM94.2416 15.1854C90.1623 15.1854 86.8375 18.1271 86.8375 22.1827C86.8375 26.212 90.1623 29.18 94.2416 29.18C98.3209 29.18 101.646 26.212 101.646 22.1827C101.646 18.1271 98.3209 15.1854 94.2416 15.1854Z" fill="white"/>
<path d="M1.11788 0.587227C0.666896 1.04159 0.399414 1.74675 0.399414 2.6599V35.2857C0.399414 36.2003 0.666896 36.904 1.11788 37.3584L1.23297 37.4646L20.501 19.1882V18.9728V18.756L1.23297 0.479538L1.11788 0.587227Z" fill="white"/>
<path d="M20.501 18.7559V18.9727V19.1881L26.9221 25.2837L27.0683 25.2055L34.6775 21.1044C36.8501 19.9316 36.8501 18.0138 34.6775 16.844L27.0683 12.7414L26.9237 12.6632L20.501 18.7559Z" fill="white"/>
<path d="M1.11816 37.3583C1.83508 38.0767 3.01853 38.1667 4.35128 37.4498L27.0686 25.204L20.5013 18.9727L1.11816 37.3583Z" fill="#DBDBDB"/>
<path d="M1.11816 0.587076L20.5013 18.9727L27.0686 12.7414L4.35128 0.497091C3.72612 0.159267 3.13361 -5.72205e-05 2.60798 -5.72205e-05C2.01081 -5.72205e-05 1.49917 0.204996 1.11816 0.587076Z" fill="#DBDBDB"/>
</svg>
