<svg width="22" height="22" viewBox="0 0 22 22" fill="none" xmlns="http://www.w3.org/2000/svg">
<path d="M14.4089 10.909C14.4089 11.8132 14.0498 12.6803 13.4104 13.3196C12.7711 13.9589 11.904 14.3181 10.9998 14.3181C10.0957 14.3181 9.2286 13.9589 8.58927 13.3196C7.94995 12.6803 7.59078 11.8132 7.59078 10.909C7.59078 10.7147 7.61123 10.5249 7.64646 10.3408H6.45442V14.8829C6.45442 15.1988 6.7101 15.4545 7.02601 15.4545H14.9748C15.1262 15.4542 15.2713 15.3938 15.3783 15.2866C15.4852 15.1795 15.5453 15.0343 15.5453 14.8829V10.3408H14.3532C14.3885 10.5249 14.4089 10.7147 14.4089 10.909ZM10.9998 13.1817C11.2984 13.1817 11.594 13.1228 11.8698 13.0085C12.1455 12.8942 12.3961 12.7267 12.6071 12.5155C12.8182 12.3044 12.9856 12.0537 13.0997 11.7779C13.2139 11.502 13.2726 11.2064 13.2726 10.9079C13.2725 10.6094 13.2136 10.3138 13.0993 10.038C12.985 9.76221 12.8175 9.51165 12.6063 9.3006C12.3952 9.08956 12.1445 8.92218 11.8687 8.808C11.5929 8.69383 11.2972 8.6351 10.9987 8.63518C10.3958 8.63533 9.81764 8.87498 9.39143 9.30141C8.96521 9.72784 8.72585 10.3061 8.726 10.909C8.72615 11.5119 8.9658 12.0901 9.39223 12.5163C9.81866 12.9425 10.3969 13.1819 10.9998 13.1817ZM13.7271 8.52268H15.0896C15.1801 8.52268 15.2669 8.4868 15.3311 8.4229C15.3952 8.359 15.4313 8.27229 15.4316 8.18177V6.81928C15.4316 6.72856 15.3956 6.64156 15.3315 6.57742C15.2673 6.51327 15.1803 6.47723 15.0896 6.47723H13.7271C13.6364 6.47723 13.5494 6.51327 13.4852 6.57742C13.4211 6.64156 13.3851 6.72856 13.3851 6.81928V8.18177C13.3862 8.36927 13.5396 8.52268 13.7271 8.52268ZM10.9998 0C8.1066 0 5.33184 1.14934 3.286 3.19518C1.24016 5.24102 0.0908203 8.01577 0.0908203 10.909C0.0908203 13.8023 1.24016 16.577 3.286 18.6229C5.33184 20.6687 8.1066 21.8181 10.9998 21.8181C12.4324 21.8181 13.851 21.5359 15.1746 20.9877C16.4981 20.4394 17.7007 19.6359 18.7137 18.6229C19.7267 17.6099 20.5302 16.4073 21.0785 15.0837C21.6267 13.7602 21.9089 12.3416 21.9089 10.909C21.9089 9.47643 21.6267 8.05787 21.0785 6.73432C20.5302 5.41078 19.7267 4.20818 18.7137 3.19518C17.7007 2.18218 16.4981 1.37863 15.1746 0.8304C13.851 0.28217 12.4324 0 10.9998 0ZM16.6816 15.3283C16.6816 16.0226 16.1135 16.5908 15.4191 16.5908H6.58056C5.88624 16.5908 5.31806 16.0226 5.31806 15.3283V6.48974C5.31806 5.79542 5.88624 5.22724 6.58056 5.22724H15.4191C16.1135 5.22724 16.6816 5.79542 16.6816 6.48974V15.3283Z" fill="white"/>
</svg>

