<svg width="23" height="22" viewBox="0 0 23 22" fill="none" xmlns="http://www.w3.org/2000/svg">
<circle cx="11.8172" cy="10.909" r="10.909" fill="white"/>
<path d="M15.2134 7.70068H8.42114C7.96031 7.70068 7.51836 7.88247 7.19251 8.20606C6.86666 8.52966 6.68359 8.96854 6.68359 9.42616V13.034C6.68359 13.4916 6.86666 13.9305 7.19251 14.2541C7.51836 14.5777 7.96031 14.7595 8.42114 14.7595H15.2134C15.6742 14.7595 16.1161 14.5777 16.442 14.2541C16.7679 13.9305 16.9509 13.4916 16.9509 13.034V9.42616C16.9509 8.96854 16.7679 8.52966 16.442 8.20606C16.1161 7.88247 15.6742 7.70068 15.2134 7.70068ZM13.8281 11.2991L10.7479 12.8677C10.7359 12.8739 10.7225 12.8769 10.709 12.8765C10.6955 12.876 10.6823 12.8722 10.6708 12.8652C10.6592 12.8583 10.6496 12.8486 10.6429 12.8369C10.6362 12.8253 10.6327 12.8121 10.6326 12.7987V9.66146C10.6327 9.64804 10.6362 9.63488 10.6429 9.62323C10.6496 9.61158 10.6592 9.60183 10.6708 9.5949C10.6823 9.58798 10.6955 9.58412 10.709 9.58369C10.7225 9.58325 10.7359 9.58627 10.7479 9.59244L13.8281 11.1611C13.841 11.1676 13.8519 11.1776 13.8594 11.19C13.867 11.2023 13.871 11.2164 13.871 11.2309C13.871 11.2453 13.867 11.2594 13.8594 11.2718C13.8519 11.2841 13.841 11.2941 13.8281 11.3007V11.2991Z" fill="#0F4972"/>
</svg>
